<svg xmlns="http://www.w3.org/2000/svg" viewBox="0 0 480.9358 33.453"><defs><style>.cls-1{fill:#249c84;}</style></defs><title>12 w21-b</title><g id="Layer_2" data-name="Layer 2"><g id="artwork"><polygon points="466.848 0 0 0 0 33.453 480.936 33.453 466.848 0"/><path class="cls-1" d="M298.9591,14.06h-1.6064V12.9606a12.3912,12.3912,0,0,0,2.4113-1.5243h1.0316V23.4394h-1.8366Z"/><path class="cls-1" d="M304.062,23.4394v-1.59c2.5238-3.69,3.9017-5.7231,3.9017-7.4615,0-.9344-.3605-1.3449-.9174-1.3449-.6568,0-.9852.5087-.9852,1.23v.8041h-1.9348v-.5578a2.891,2.891,0,0,1,3.0182-3.0824,2.6412,2.6412,0,0,1,2.754,2.6237c0,1.8687-.589,3.2466-3.7714,7.707h3.5911v1.6724Z"/><path class="cls-1" d="M318.7726,11.6h1.6724l1.3779,7.5436h.0321L322.9867,11.6h1.9026l-2.0829,11.84H321.1l-1.4743-7.8221h-.0339l-1.3779,7.8221h-1.7045L314.2623,11.6h1.9026l1.2458,7.5436h.0339Z"/><path class="cls-1" d="M329.5656,23.4394v-1.59c2.5238-3.69,3.9017-5.7231,3.9017-7.4615,0-.9344-.3605-1.3449-.9174-1.3449-.6568,0-.9852.5087-.9852,1.23v.8041H329.63v-.5578a2.891,2.891,0,0,1,3.0182-3.0824,2.6412,2.6412,0,0,1,2.754,2.6237c0,1.8687-.589,3.2466-3.7714,7.707h3.5911v1.6724Z"/><path class="cls-1" d="M339.0271,14.06h-1.6064V12.9606a12.3912,12.3912,0,0,0,2.4113-1.5243h1.0316V23.4394h-1.8366Z"/><path class="cls-1" d="M348.0977,14.5188c-.0821-1.0165-.6229-1.3119-1.0816-1.3119-.6568,0-1.0174.4266-1.0174,1.1646,0,2.0169,4.1319,2.9843,4.1319,6.1979a2.9008,2.9008,0,0,1-3.2145,3.0342,3.1182,3.1182,0,0,1-3.0485-3.28l1.9348-.2793c.0821,1.1976.5569,1.7875,1.2137,1.7875a1.044,1.044,0,0,0,1.18-1.0825c0-2.3444-4.1319-2.9673-4.1319-6.3621,0-1.8857,1.1477-2.9512,3.1485-2.9512,1.6563,0,2.64,1.1967,2.82,2.8691Z"/><path class="cls-1" d="M352.8543,13.3711h-1.9669V11.6h5.9685v1.7715h-1.9687V23.4394h-2.0329Z"/><path class="cls-1" d="M365.4,14.5188c-.0821-1.0165-.6229-1.3119-1.0816-1.3119-.655,0-1.0174.4266-1.0174,1.1646,0,2.0169,4.1337,2.9843,4.1337,6.1979a2.9008,2.9008,0,0,1-3.2145,3.0342,3.12,3.12,0,0,1-3.05-3.28l1.9348-.2793c.0821,1.1976.5587,1.7875,1.2137,1.7875A1.0454,1.0454,0,0,0,365.5,20.75c0-2.3444-4.1337-2.9673-4.1337-6.3621,0-1.8857,1.1477-2.9512,3.1485-2.9512,1.6563,0,2.64,1.1967,2.8218,2.8691Z"/><path class="cls-1" d="M370.1583,13.3711H368.19V11.6h5.9685v1.7715h-1.9669V23.4394h-2.0329Z"/><polygon class="cls-1" points="394.198 13.548 396.393 8.377 387.115 8.377 387.57 9.46 382.904 9.46 382.904 10.598 382.904 10.598 382.904 13.578 382.904 18.771 382.904 24.235 384.518 24.235 384.518 18.771 391.737 18.771 391.275 17.671 395.945 17.671 394.198 13.548"/></g></g></svg>