<svg xmlns="http://www.w3.org/2000/svg" xmlns:xlink="http://www.w3.org/1999/xlink" viewBox="0 0 318.0578 33.4532"><defs><style>.cls-1{fill:url(#New_Gradient_Swatch_copy_2);}.cls-2{fill:#fff;}</style><linearGradient id="New_Gradient_Swatch_copy_2" x1="-3.8244" y1="6.1831" x2="558.178" y2="44.2134" gradientUnits="userSpaceOnUse"><stop offset="0" stop-color="#6ea853"/><stop offset="0.4884" stop-color="#4a977c"/><stop offset="1" stop-color="#0a8b98"/></linearGradient></defs><title>12w27</title><g id="Layer_2" data-name="Layer 2"><g id="artwork"><polygon class="cls-1" points="303.97 0 0 0 0 33.453 318.058 33.453 303.97 0"/><path class="cls-2" d="M154.6186,14.7494h-1.6064V13.65a12.3757,12.3757,0,0,0,2.41-1.5243h1.0334V24.1287h-1.8366Z"/><path class="cls-2" d="M159.72,24.1287v-1.59c2.5256-3.69,3.9035-5.7231,3.9035-7.4615,0-.9344-.3605-1.3449-.9192-1.3449-.655,0-.9834.5087-.9834,1.23v.8041h-1.9348v-.5578a2.8906,2.8906,0,0,1,3.0164-3.0824,2.6427,2.6427,0,0,1,2.7558,2.6237c0,1.8687-.5908,3.2466-3.7714,7.707h3.5911v1.6724Z"/><path class="cls-2" d="M174.43,12.289h1.6724l1.3779,7.5436h.0339l1.1316-7.5436h1.9009l-2.0829,11.84H176.76l-1.4761-7.8221h-.0321l-1.3779,7.8221h-1.7063l-2.2453-11.84h1.9026l1.2458,7.5436h.0321Z"/><path class="cls-2" d="M185.2234,24.1287v-1.59c2.5256-3.69,3.9035-5.7231,3.9035-7.4615,0-.9344-.3605-1.3449-.9192-1.3449-.655,0-.9834.5087-.9834,1.23v.8041h-1.9348v-.5578a2.8906,2.8906,0,0,1,3.0164-3.0824,2.6427,2.6427,0,0,1,2.7558,2.6237c0,1.8687-.5908,3.2466-3.7714,7.707h3.5911v1.6724Z"/><path class="cls-2" d="M192.7019,13.9623V12.289h5.3456v1.1485l-2.41,10.6912h-1.9187l2.3774-10.1665Z"/><path class="cls-2" d="M201.2317,14.06H199.263V12.289h5.9685V14.06h-1.9669V24.1287h-2.0329Z"/><path class="cls-2" d="M206.4309,24.1287V12.289h2.0329v4.8218h2.165V12.289h2.0329v11.84h-2.0329V18.8813h-2.165v5.2474Z"/><path class="cls-2" d="M221.9769,15.2081c-.0821-1.0165-.6229-1.3119-1.0816-1.3119-.655,0-1.0174.4266-1.0174,1.1646,0,2.0169,4.1337,2.9843,4.1337,6.1979a2.9008,2.9008,0,0,1-3.2145,3.0342,3.12,3.12,0,0,1-3.05-3.28l1.9348-.2793c.0821,1.1976.5587,1.7875,1.2137,1.7875a1.0454,1.0454,0,0,0,1.1816-1.0825c0-2.3444-4.1337-2.9673-4.1337-6.3621,0-1.8857,1.1477-2.9512,3.1485-2.9512,1.6563,0,2.64,1.1967,2.8218,2.8691Z"/><path class="cls-2" d="M226.7353,14.06h-1.9687V12.289h5.9685V14.06h-1.9669V24.1287h-2.0329Z"/><polygon class="cls-2" points="250.898 14.177 253.093 9.006 243.815 9.006 244.27 10.089 239.605 10.089 239.605 11.227 239.604 11.227 239.604 14.208 239.604 19.4 239.604 24.864 241.218 24.864 241.218 19.4 248.438 19.4 247.975 18.3 252.645 18.3 250.898 14.177"/></g></g></svg>