<svg xmlns="http://www.w3.org/2000/svg" viewBox="0 0 345.2041 33.453"><defs><style>.cls-1{fill:#249c84;}</style></defs><title>30w26-b</title><g id="Layer_2" data-name="Layer 2"><g id="artwork"><polygon points="331.117 0 0 0 0 33.453 345.204 33.453 331.117 0"/><path class="cls-1" d="M120.2084,19.9688v.8032c0,.738.2963,1.1807.9192,1.1807.5908,0,.9674-.41.9674-1.394v-.9022c0-1.2788-.4926-1.6724-1.7384-1.6724V16.3777c1.1976,0,1.6563-.3945,1.6563-1.8045,0-1.1146-.2124-1.5742-.8192-1.5742-.5747,0-.9192.2793-.9192,1.2137v.4917h-1.8366v-.5578a2.5785,2.5785,0,0,1,2.7719-2.754c1.7545,0,2.64,1.4591,2.64,3.0333,0,1.377-.23,2.1481-1.28,2.7219,1.1976.6229,1.46,1.3288,1.46,2.9352,0,2.3614-.9353,3.4769-2.9521,3.4769-1.6885,0-2.7058-.8532-2.7058-2.8861v-.705Z"/><path class="cls-1" d="M125.654,14.6393c0-2.23.8532-3.2466,2.8861-3.2466,2.0347,0,2.8861,1.0165,2.8861,3.2466v5.674c0,2.2293-.8514,3.2466-2.8861,3.2466-2.0329,0-2.8861-1.0174-2.8861-3.2466Zm3.8374-.5087c0-.7711-.3445-1.1316-.9513-1.1316s-.95.3605-.95,1.1316v6.69c0,.7711.3427,1.1316.95,1.1316s.9513-.3605.9513-1.1316Z"/><path class="cls-1" d="M140.3325,11.556h1.6724L143.3828,19.1h.0339l1.1316-7.5436h1.9009l-2.0829,11.84h-1.7045l-1.4761-7.8221h-.0321l-1.3779,7.8221h-1.7063l-2.2453-11.84h1.9026L138.9725,19.1h.0321Z"/><path class="cls-1" d="M151.1255,23.3957v-1.59c2.5256-3.69,3.9035-5.7231,3.9035-7.4615,0-.9344-.3605-1.3449-.9192-1.3449-.655,0-.9834.5087-.9834,1.23v.8041h-1.9348v-.5578a2.8906,2.8906,0,0,1,3.0164-3.0824,2.6427,2.6427,0,0,1,2.7558,2.6237c0,1.8687-.5908,3.2466-3.7714,7.707h3.5911v1.6724Z"/><path class="cls-1" d="M162.1951,14.7375v-.6068c0-.7711-.2624-1.1316-.8692-1.1316s-.95.3605-.95,1.1316v2.7719a2.0071,2.0071,0,0,1,1.6724-.7871c1.18,0,2.1632.6881,2.1632,2.4265v1.41c0,2.4925-.8514,3.6081-2.8861,3.6081-2.0329,0-2.8861-1.0174-2.8861-3.2466v-5.674c0-2.23.8532-3.2466,2.8861-3.2466a2.4919,2.4919,0,0,1,2.6416,2.6237v.7211Zm-1.8188,6.0836c0,.7711.3427,1.1316.95,1.1316s.9513-.3605.9513-1.1316V18.8533c0-.7711-.3445-1.1316-.8514-1.1316a2.0707,2.0707,0,0,0-1.0495.5417Z"/><path class="cls-1" d="M167.1338,13.3274h-1.9687V11.556h5.9685v1.7715h-1.9669V23.3957h-2.0329Z"/><path class="cls-1" d="M172.333,23.3957V11.556h2.0329v4.8218h2.165V11.556h2.0329v11.84H176.531V18.1483h-2.165v5.2474Z"/><path class="cls-1" d="M187.879,14.4751c-.0821-1.0165-.6229-1.3119-1.0816-1.3119-.655,0-1.0174.4266-1.0174,1.1646,0,2.0169,4.1337,2.9843,4.1337,6.1979a2.9008,2.9008,0,0,1-3.2145,3.0342,3.12,3.12,0,0,1-3.05-3.28l1.9348-.2793c.0821,1.1976.5587,1.7875,1.2137,1.7875a1.0454,1.0454,0,0,0,1.1816-1.0825c0-2.3444-4.1337-2.9673-4.1337-6.3621,0-1.8857,1.1477-2.9512,3.1485-2.9512,1.6563,0,2.64,1.1967,2.8218,2.8691Z"/><path class="cls-1" d="M192.6374,13.3274h-1.9687V11.556h5.9685v1.7715H194.67V23.3957h-2.0329Z"/><polygon class="cls-1" points="215.578 13.328 217.773 8.157 208.495 8.157 208.95 9.24 204.285 9.24 204.284 10.377 204.284 10.377 204.284 13.358 204.284 18.55 204.284 24.015 205.898 24.015 205.898 18.55 213.118 18.55 212.655 17.451 217.325 17.451 215.578 13.328"/></g></g></svg>