<svg xmlns="http://www.w3.org/2000/svg" xmlns:xlink="http://www.w3.org/1999/xlink" viewBox="0 0 468.9825 33.4532"><defs><style>.cls-1{fill:url(#New_Gradient_Swatch_copy_2);}.cls-2{fill:#fff;}</style><linearGradient id="New_Gradient_Swatch_copy_2" x1="-167.408" y1="-20.45" x2="421.3564" y2="33.074" gradientUnits="userSpaceOnUse"><stop offset="0" stop-color="#6ea853"/><stop offset="0.4884" stop-color="#4a977c"/><stop offset="1" stop-color="#0a8b98"/></linearGradient></defs><title>401park</title><g id="Layer_2" data-name="Layer 2"><g id="artwork"><polygon class="cls-1" points="0 0 14.088 33.453 468.982 33.453 468.982 0 0 0"/><path class="cls-2" d="M305.6557,19.3443h-3.5411V17.8352l3.443-7.4776h1.9687v7.4776h1.0816v1.5091h-1.0816v2.8531h-1.8705Zm.0339-1.5091V13.2106h-.0339l-1.983,4.6245Z"/><path class="cls-2" d="M309.8875,13.4409c0-2.23.8532-3.2466,2.8861-3.2466,2.0347,0,2.8861,1.0165,2.8861,3.2466v5.674c0,2.2293-.8514,3.2466-2.8861,3.2466-2.0329,0-2.8861-1.0174-2.8861-3.2466Zm3.8374-.5087c0-.7711-.3445-1.1316-.9513-1.1316s-.95.3605-.95,1.1316v6.69c0,.7711.3427,1.1316.95,1.1316s.9513-.3605.9513-1.1316Z"/><path class="cls-2" d="M319.3187,12.818h-1.6064V11.7185a12.3757,12.3757,0,0,0,2.41-1.5243h1.0334V22.1973h-1.8366Z"/><path class="cls-2" d="M328.3232,22.1973v-11.84h2.9182c2.5095,0,3.6732.9674,3.6732,3.4929s-1.1637,3.4929-3.6732,3.4929h-.8853v4.8539Zm2.0329-6.5263h.7871c1.3279,0,1.7384-.4105,1.7384-1.8205s-.4105-1.82-1.7384-1.82h-.7871Z"/><path class="cls-2" d="M337.7044,22.1973h-1.9669l2.1793-11.84h2.5256l2.1811,11.84h-1.9669l-.3605-2.6237h-2.2311Zm.6568-4.3943H340l-.8032-5.0841h-.0321Z"/><path class="cls-2" d="M345.84,22.1973h-2.0329v-11.84h2.8522c2.2792,0,3.4448.9674,3.4448,3.4929,0,1.9026-.7389,2.6728-1.4279,2.9843l1.7224,5.3626h-2.0669l-1.4422-4.903a9.7543,9.7543,0,0,1-1.0495.0491Zm0-6.5263h.7211c1.0995,0,1.5082-.4105,1.5082-1.8205s-.4087-1.82-1.5082-1.82H345.84Z"/><path class="cls-2" d="M351.9082,22.1973v-11.84h2.0329v4.3782h.0339l2.1311-4.3782h2.0329l-2.1971,4.4112,2.4756,7.4285h-2.0651l-1.6563-5.51h-.0339l-.7211,1.3119v4.198Z"/><path class="cls-2" d="M364.1111,22.1973h-1.9687l2.1811-11.84h2.5256l2.1811,11.84h-1.9687l-.3605-2.6237h-2.2293Zm.655-4.3943h1.64l-.8032-5.0841h-.0339Z"/><path class="cls-2" d="M373.7547,10.3576h2.0008l-2.4756,11.84H371.247l-2.4774-11.84H370.77l1.4761,8.2156h.0339Z"/><path class="cls-2" d="M376.8889,22.1973v-11.84h5.4438V12.129h-3.4108v3.05h2.6237V16.95h-2.6237v3.4769h3.6411v1.7706Z"/><path class="cls-2" d="M391.5174,13.2767c-.0821-1.0165-.6229-1.3119-1.0816-1.3119-.655,0-1.0174.4266-1.0174,1.1646,0,2.0169,4.1337,2.9843,4.1337,6.1979a2.9008,2.9008,0,0,1-3.2145,3.0342,3.12,3.12,0,0,1-3.05-3.28l1.9348-.2793c.0821,1.1976.5587,1.7875,1.2137,1.7875a1.0454,1.0454,0,0,0,1.1816-1.0825c0-2.3444-4.1337-2.9673-4.1337-6.3621,0-1.8857,1.1477-2.9512,3.1485-2.9512,1.6563,0,2.64,1.1967,2.8218,2.8691Z"/><polygon class="cls-2" points="413.257 12.442 415.452 7.271 406.173 7.271 406.628 8.353 401.963 8.353 401.963 9.491 401.963 9.491 401.963 12.472 401.963 17.664 401.963 23.129 403.576 23.129 403.576 17.664 410.796 17.664 410.333 16.564 415.003 16.564 413.257 12.442"/></g></g></svg>