<svg xmlns="http://www.w3.org/2000/svg" viewBox="0 0 577.5677 33.4532"><defs><style>.cls-1{fill:#249c84;}</style></defs><title>6e32-b</title><g id="Layer_2" data-name="Layer 2"><g id="artwork"><polygon points="0 0 14.088 33.453 577.568 33.453 577.568 0 0 0"/><path class="cls-1" d="M205.2938,14.081v-.6068c0-.7711-.2624-1.1316-.8692-1.1316s-.95.3605-.95,1.1316V16.246a2.0071,2.0071,0,0,1,1.6724-.7871c1.18,0,2.1632.6881,2.1632,2.4265v1.41c0,2.4925-.8514,3.6081-2.8861,3.6081-2.0329,0-2.8861-1.0174-2.8861-3.2466v-5.674c0-2.23.8532-3.2466,2.8861-3.2466a2.4919,2.4919,0,0,1,2.6416,2.6237v.7211Zm-1.8188,6.0836c0,.7711.3427,1.1316.95,1.1316s.9513-.3605.9513-1.1316V18.1968c0-.7711-.3445-1.1316-.8514-1.1316a2.0707,2.0707,0,0,0-1.0495.5417Z"/><path class="cls-1" d="M212.6919,22.7393V10.9h5.4438V12.671h-3.4108v3.05h2.6237v1.7706h-2.6237v3.4769h3.6411v1.7706Z"/><path class="cls-1" d="M225.2216,19.3124v.8032c0,.738.2963,1.1807.9192,1.1807.5908,0,.9674-.41.9674-1.394V19c0-1.2788-.4926-1.6724-1.7384-1.6724V15.7213c1.1976,0,1.6563-.3945,1.6563-1.8045,0-1.1146-.2124-1.5742-.8192-1.5742-.5747,0-.9192.2793-.9192,1.2137v.4917H223.451V13.49a2.5785,2.5785,0,0,1,2.7719-2.754c1.7545,0,2.64,1.4591,2.64,3.0333,0,1.377-.23,2.1481-1.28,2.7219,1.1976.6229,1.46,1.3288,1.46,2.9352,0,2.3614-.9353,3.4769-2.9521,3.4769-1.6885,0-2.7058-.8532-2.7058-2.8861v-.705Z"/><path class="cls-1" d="M230.635,22.7393v-1.59c2.5256-3.69,3.9035-5.7231,3.9035-7.4615,0-.9344-.3605-1.3449-.9192-1.3449-.655,0-.9834.5087-.9834,1.23v.8041H230.701v-.5578a2.8906,2.8906,0,0,1,3.0164-3.0824,2.6427,2.6427,0,0,1,2.7558,2.6237c0,1.8687-.5908,3.2466-3.7714,7.707h3.5911v1.6724Z"/><path class="cls-1" d="M238.18,22.7393V10.9h1.8866l2.4756,6.7726h.0321V10.9H244.41v11.84H242.64l-2.5916-7.3955h-.0321v7.3955Z"/><path class="cls-1" d="M246.3809,10.9h3.0164c2.099,0,3.2145,1.1485,3.2145,3.575v4.69c0,2.4274-1.1155,3.575-3.2145,3.575h-3.0164Zm2.0329,10.1674h.705c1.0816,0,1.46-.4105,1.46-1.6563V14.2282c0-1.2458-.3784-1.6554-1.46-1.6554h-.705Z"/><path class="cls-1" d="M261.9269,13.8186c-.0821-1.0165-.6229-1.3119-1.0816-1.3119-.655,0-1.0174.4266-1.0174,1.1646,0,2.0169,4.1337,2.9843,4.1337,6.1979a2.9008,2.9008,0,0,1-3.2145,3.0342,3.12,3.12,0,0,1-3.05-3.28l1.9348-.2793c.0821,1.1976.5587,1.7875,1.2137,1.7875a1.0454,1.0454,0,0,0,1.1816-1.0825c0-2.3444-4.1337-2.9673-4.1337-6.3621,0-1.8857,1.1477-2.9512,3.1485-2.9512,1.6563,0,2.64,1.1967,2.8218,2.8691Z"/><path class="cls-1" d="M266.6853,12.671h-1.9687V10.9h5.9685V12.671h-1.9669V22.7393h-2.0329Z"/><polygon class="cls-1" points="289.432 14.062 291.627 8.891 282.348 8.891 282.803 9.974 278.138 9.974 278.138 11.111 278.138 11.111 278.138 14.092 278.138 19.284 278.138 24.749 279.751 24.749 279.751 19.284 286.971 19.284 286.508 18.185 291.178 18.185 289.432 14.062"/></g></g></svg>