<svg xmlns="http://www.w3.org/2000/svg" viewBox="0 0 7.0971 13.5314"><defs><style>.cls-1{fill:#249c84;}</style></defs><title>Destination-g</title><g id="Layer_2" data-name="Layer 2"><g id="artwork"><path class="cls-1" d="M3.7248,7.2328h0l.2064-2.64h0l.5213.8316a.4221.4221,0,0,0,.3062.1948l1.8649.2288A.4221.4221,0,0,0,6.7264,5.01L5.0579,4.8,3.9033,2.9585A.4212.4212,0,0,0,3.6,2.7641l-.0018-.0034-.03,0A.422.422,0,0,0,3.51,2.762L2.25,2.7807a.4232.4232,0,0,0-.17.0025l-.0154,0-.0015.0039a.421.421,0,0,0-.143.069L.4031,4.2209A.4221.4221,0,0,0,.2354,4.51L.003,6.4626a.4221.4221,0,1,0,.8382.1l.2182-1.7773.7793-.723L1.5559,7.43h0L.7773,12.7233a.6331.6331,0,0,0,1.2528.1843l.7114-4.8363m.313-5.2534"/><circle class="cls-1" cx="2.9827" cy="1.2153" r="1.2151" transform="translate(-0.1389 0.4221) rotate(-7.9105)"/><path class="cls-1" d="M5.0008,13.5314a.6109.6109,0,0,1-.61-.5825L4.2578,10.1,2.3351,7.441a.6107.6107,0,0,1,.99-.7158l2.03,2.8068a.61.61,0,0,1,.1152.33l.1415,3.0306a.6108.6108,0,0,1-.5817.6385Z"/></g></g></svg>