<svg xmlns="http://www.w3.org/2000/svg" viewBox="0 0 196.4953 35.6805"><defs><style>.cls-1{fill:#00557e;}.cls-2{fill:#4090ce;}.cls-3{fill:#b0b2b4;}</style></defs><title>H+M logo</title><g id="Layer_2" data-name="Layer 2"><g id="artwork"><path class="cls-1" d="M44.9946,12.6278h.9883V16.66h6.8905V12.6278h.9883v9.535h-.9883V17.5688H45.9829v4.5939h-.9883Z"/><path class="cls-1" d="M56.0488,12.6278h.9883v9.535h-.9883Z"/><path class="cls-1" d="M69.1317,12.6278h1.402v9.535h-.9883v-8.24h-.0266l-4.2062,8.24h-.9085l-4.1932-8.2533h-.0266v8.2533h-.988v-9.535h1.442L64.885,20.92Z"/><path class="cls-1" d="M82.6117,12.6278h1.4024v9.535h-.988v-8.24h-.027l-4.2064,8.24h-.9079l-4.1935-8.2533h-.0266v8.2533h-.9883v-9.535h1.442l4.247,8.2926Z"/><path class="cls-1" d="M86.2331,12.6278H93.818v.9079H87.2215v3.2318h6.3565v.9079H87.2215v3.5789h6.7036v.9085h-7.692Z"/><path class="cls-1" d="M95.3588,12.6278h.9883v8.6265h6.0491v.9085H95.3588Z"/><path class="cls-1" d="M105.1846,17.5441H102.14v-.6678h3.0445V13.8315h.6678v3.0449h3.0448v.6678h-3.0448V20.589h-.6678Z"/><path class="cls-1" d="M120.6762,12.6278h1.4021v9.535h-.988v-8.24h-.0269l-4.2062,8.24h-.9085l-4.1929-8.2533h-.0266v8.2533h-.9883v-9.535h1.442l4.2467,8.2926Z"/><path class="cls-1" d="M124.2973,12.6278h7.5852v.9079h-6.5972v3.2318h6.3568v.9079h-6.3568v3.5789h6.7039v.9085h-7.692Z"/><path class="cls-1" d="M133.4993,12.6278h5.1948c1.6159,0,3.0981.574,3.0981,2.5773a2.325,2.325,0,0,1-1.8693,2.31v.0272c1.3482.2135,1.6289,1.0815,1.6957,2.6438a5.0851,5.0851,0,0,0,.3336,1.9767H140.884a4.4194,4.4194,0,0,1-.2534-1.95c-.0266-1.6827-.6678-2.2434-2.3105-2.2434h-3.8324v4.1935h-.9883Zm.9883,4.4336h4.18c1.0821,0,2.0565-.401,2.0565-1.8563,0-1.402-1.0549-1.6694-1.9627-1.6694h-4.2733Z"/><path class="cls-1" d="M143.703,12.6278h.988v9.535h-.988Z"/><path class="cls-1" d="M146.85,12.6278h1.1885l6.6637,8.1462h.0266V12.6278h.9883v9.535h-1.1486l-6.7036-8.1462h-.0266v8.1462H146.85Z"/><path class="cls-1" d="M166.4618,20.36h-.027a4.3147,4.3147,0,0,1-3.9663,2.0432,4.62,4.62,0,0,1-4.9943-5.0076,4.7844,4.7844,0,0,1,5.1014-5.0082c2.6574,0,4.3535,1.4958,4.6072,3.259h-1.0682c-.3877-1.6162-1.83-2.35-3.539-2.35-2.6039,0-4.0332,1.5889-4.0332,4.1,0,2.564,1.3089,4.1,3.8463,4.1,2.8576,0,3.7658-1.6295,4.06-3.3388h-3.4988v-.9079h4.407v4.9144h-.7612Z"/><path class="cls-1" d="M174.0929,12.387c2.711,0,5.1815,1.6428,5.1815,5.0082s-2.4705,5.0076-5.1815,5.0076-5.1812-1.6428-5.1812-5.0076S171.3822,12.387,174.0929,12.387Zm0,9.1079a3.8478,3.8478,0,0,0,4.113-4.1,4.113,4.113,0,0,0-8.226,0A3.8479,3.8479,0,0,0,174.0929,21.495Z"/><path class="cls-1" d="M180.9809,12.6278h7.1442v.9079h-6.1565v3.2318h5.85v.9079h-5.85v4.4874h-.9877Z"/><path class="cls-1" d="M189.3507,12.6278h7.1445v.9079h-6.1562v3.2318h5.849v.9079h-5.849v4.4874h-.9883Z"/><polygon class="cls-1" points="23.171 2.225 23.136 10.927 15.695 10.828 17.008 4.682 23.171 2.225"/><polygon class="cls-2" points="11.282 2.443 9.801 11.329 15.081 13.604 17.008 4.682 11.282 2.443"/><polygon class="cls-1" points="13.249 6.174 13.943 8.757 13.249 14.874 11.83 21.244 5.205 19.078 5.606 9.086 13.249 6.174"/><polygon class="cls-3" points="13.195 15.329 5.642 18.277 5.642 21.717 13.177 18.386 13.195 15.329"/><polygon class="cls-1" points="13.122 23.337 5.569 22.5 5.569 31.399 13.104 28.069 13.122 23.337"/><polyline class="cls-2" points="20.693 6.065 19.929 8.777 22.058 10.961 25.607 19.697 28.282 8.886"/><polyline class="cls-2" points="21.057 28.05 22.131 21.59 29.283 19.988 32.832 28.724 28.646 30.871"/><polygon class="cls-2" points="0 6.948 5.624 9.104 5.624 18.314 9.391 19.843 9.391 10.579 16.366 13.268 16.626 35.681 9.446 32.896 9.446 24.575 5.61 23.046 5.61 31.381 0 29.233 0 6.948"/><polygon class="cls-3" points="33.706 6.356 26.699 3.608 20.693 6.065 27.736 8.758 33.706 6.356"/><polygon class="cls-3" points="23.874 10.285 17.008 7.553 9.391 10.579 16.366 13.268 23.874 10.285"/><polygon class="cls-3" points="5.624 9.104 0 6.948 7.596 3.917 13.254 6.17 5.624 9.104"/><polygon class="cls-3" points="23.191 2.259 17.376 0 11.275 2.43 17.028 4.709 23.191 2.259"/><polygon class="cls-3" points="26.208 26.54 22.955 25.711 22.95 22.891 26.208 26.54"/><polygon class="cls-1" points="33.706 6.356 33.633 28.87 28.665 30.871 28.665 21.717 26.208 26.54 22.95 22.891 22.932 33.101 16.626 35.681 16.366 13.268 23.874 10.285 25.844 18.859 27.736 8.758 33.706 6.356"/></g></g></svg>