<svg xmlns="http://www.w3.org/2000/svg" xmlns:xlink="http://www.w3.org/1999/xlink" viewBox="0 0 49.0175 73.6414"><defs><style>.cls-1{fill:url(#New_Gradient_Swatch_copy_4);}</style><linearGradient id="New_Gradient_Swatch_copy_4" x1="26.7475" y1="22.8943" x2="44.7631" y2="40.6632" gradientUnits="userSpaceOnUse"><stop offset="0" stop-color="#699d42"/><stop offset="0.4884" stop-color="#448e73"/><stop offset="1" stop-color="#008194"/></linearGradient></defs><title>logo-B</title><g id="Layer_2" data-name="Layer 2"><g id="artwork"><path d="M13.5126,73.57h.8865V71.28h1.1884v-.772H14.3991V69.176h1.5891v-.772H13.5126ZM10.3864,69.176h.86V73.57h.8865V69.176h.8587v-.772H10.3864Zm-5.4456-.8431a1.24,1.24,0,0,0-1.3584,1.3237v2.6612a1.24,1.24,0,0,0,1.3584,1.3237,1.2408,1.2408,0,0,0,1.36-1.3237V69.6565A1.2408,1.2408,0,0,0,4.9408,68.3328Zm.4736,3.9641c0,.3869-.1145.5725-.4736.5725-.3574,0-.4719-.1856-.4719-.5725v-2.62c0-.3869.1145-.5725.4719-.5725.3591,0,.4736.1856.4736.5725ZM1.28,68.404H.0052V73.57H.8934V71.4521H1.28c1.0947,0,1.603-.4216,1.603-1.5249C2.8833,68.8255,2.375,68.404,1.28,68.404Zm-.0434,2.3177H.8934V69.1343h.3435c.5794,0,.7581.1787.7581.7928C1.995,70.543,1.8164,70.7217,1.2369,70.7217Zm8.6672-.7946c0-1.1016-.5083-1.5232-1.5041-1.5232H7.1562V73.57h.8865V71.4521a4.4064,4.4064,0,0,0,.458-.0208l.63,2.139h.9021l-.7512-2.34C9.5814,71.0947,9.9041,70.7581,9.9041,69.9271Zm-1.5475.7946h-.314V69.1343h.314c.4805,0,.6592.1787.6592.7928C9.0159,70.543,8.8372,70.7217,8.3567,70.7217ZM21.1042,68.404h-.8865V73.57h2.283v-.772H21.1042Zm5.2843-.0711a1.2417,1.2417,0,0,0-1.36,1.3237v2.6612a1.3606,1.3606,0,0,0,2.72,0V69.6565A1.2417,1.2417,0,0,0,26.3884,68.3328Zm.4719,3.9641c0,.3869-.1145.5725-.4719.5725s-.4719-.1856-.4719-.5725v-2.62c0-.3869.1145-.5725.4719-.5725s.4719.1856.4719.5725ZM23.1651,73.57h.8865V68.404h-.8865Zm-5.1195-5.2374a1.24,1.24,0,0,0-1.3584,1.3237v2.6612a1.24,1.24,0,0,0,1.3584,1.3237,1.2408,1.2408,0,0,0,1.36-1.3237V69.6565A1.2408,1.2408,0,0,0,18.0457,68.3328Zm.4736,3.9641c0,.3869-.1145.5725-.4736.5725-.3574,0-.4719-.1856-.4719-.5725v-2.62c0-.3869.1145-.5725.4719-.5725.3591,0,.4736.1856.4736.5725Zm4.6493-47.8647H.0078V45.8074H32.1593ZM2.1494,56.7h.0347l3.6,7.9511H8.0366V52.3321h-2.15v7.3027H5.8524L2.5762,52.3321H0v12.319H2.1494Zm14.88.4879c0-2.5068-1.1988-3.7776-3.5642-3.7776s-3.5642,1.2708-3.5642,3.7776v3.93c0,2.5064,1.1988,3.7776,3.5642,3.7776s3.5642-1.2712,3.5642-3.7776Zm-2.2848,4.2039c0,1.2846-.615,1.462-1.2794,1.462s-1.2794-.1774-1.2794-1.462v-4.478c0-1.2851.615-1.462,1.2794-1.462s1.2794.177,1.2794,1.462Zm28.5665-7.8293h-3.016v11.18h3.016c2.5927,0,3.8418-1.238,3.9294-3.8995V57.459C47.1526,54.8008,45.9035,53.5625,43.3108,53.5625ZM44.9554,60.6c0,1.4729-.52,2.1017-1.7366,2.1017H42.58V55.604h.6393c1.25,0,1.7366.5892,1.7366,2.1017ZM14.9065,4.5272H.0087L.0078,21.3752H21.9924ZM16.146,0l8.9907,21.3752H39.9435L49.0175,0Zm8.2075,60.42h-.0347l-2.1321-8.0878H18.8931v12.319h2.0133V54.96h.0347l2.5077,9.6916h1.7747L27.7321,54.96h.0338v9.6916h2.0133V52.3321H26.4865Zm12.3121-6.8573h-2.839l-2.7723,11.18h2.2145l.5933-2.3151h2.7653l.5335,2.3151h2.2l-2.6777-11.11Zm-2.3784,6.8237.9351-4.0153.9212,4.0153Z"/><polygon class="cls-1" points="40.296 24.432 26.313 24.432 33.399 41.28 47.433 41.28 40.296 24.432"/></g></g></svg>