<svg xmlns="http://www.w3.org/2000/svg" viewBox="0 0 117.2453 41.1761"><defs><style>.cls-1{fill:#31567f;}.cls-2{fill:#fff;}.cls-3{fill:none;stroke:#fff;stroke-width:0.0437px;}</style></defs><title>Meringoff logo</title><g id="Layer_2" data-name="Layer 2"><g id="artwork"><rect class="cls-1" width="117.2453" height="41.1761"/><rect class="cls-2" x="2.1856" y="2.1841" width="112.8739" height="36.8076"/><rect class="cls-1" x="3.543" y="3.5416" width="110.1611" height="34.0943"/><path class="cls-2" d="M8.8459,27.1052c0-.48.2378-.6305.5989-.6305h1.5537a1.3974,1.3974,0,0,1,1.5484,1.5005,1.4358,1.4358,0,0,1-1.5535,1.5036H9.8656v1.2839a.5107.5107,0,1,1-1.02,0Zm1.02,1.54h.95a.662.662,0,0,0,.7137-.67c0-.4759-.32-.6719-.8185-.6719h-.845Z"/><path class="cls-3" d="M8.8459,27.1052c0-.48.2378-.6305.5989-.6305h1.5537a1.3974,1.3974,0,0,1,1.5484,1.5005,1.4358,1.4358,0,0,1-1.5535,1.5036H9.8656v1.2839a.5107.5107,0,1,1-1.02,0Zm1.02,1.54h.95a.662.662,0,0,0,.7137-.67c0-.4759-.32-.6719-.8185-.6719h-.845Z"/><path class="cls-2" d="M20.2786,27.3033h1.0477c.4476,0,.74.1314.74.6374,0,.5354-.3857.6384-.77.6384H20.2786Zm-1.02,3.4595a.5107.5107,0,1,0,1.02,0v-1.389h1.0046c.5589,0,.7005.3342.7005,1.1649,0,.1909.0448.765.6036.765a.4586.4586,0,0,0,.4757-.4225,6.96,6.96,0,0,1-.1331-.975c0-.48-.0965-.8844-.6155-.9627V28.928a1.1249,1.1249,0,0,0,.7685-1.1375c0-.6121-.3226-1.3158-1.5337-1.3158H19.8561c-.3577,0-.5972.15-.5972.6305Z"/><path class="cls-3" d="M20.2786,27.3033h1.0477c.4476,0,.74.1314.74.6374,0,.5354-.3857.6384-.77.6384H20.2786Zm-1.02,3.4595a.5107.5107,0,1,0,1.02,0v-1.389h1.0046c.5589,0,.7005.3342.7005,1.1649,0,.1909.0448.765.6036.765a.4586.4586,0,0,0,.4757-.4225,6.96,6.96,0,0,1-.1331-.975c0-.48-.0965-.8844-.6155-.9627V28.928a1.1249,1.1249,0,0,0,.7685-1.1375c0-.6121-.3226-1.3158-1.5337-1.3158H19.8561c-.3577,0-.5972.15-.5972.6305Z"/><path class="cls-2" d="M31.4667,28.785c0-.9076.4109-1.557,1.2424-1.557.8336,0,1.2395.6493,1.2395,1.557s-.3144,1.6733-1.2395,1.6733c-.9562,0-1.2424-.7646-1.2424-1.6733m-1.0163,0c0,1.4355.6551,2.544,2.2587,2.544A2.2816,2.2816,0,0,0,34.97,28.785a2.2653,2.2653,0,1,0-4.52,0"/><path class="cls-3" d="M31.4667,28.785c0-.9076.4109-1.557,1.2424-1.557.8336,0,1.2395.6493,1.2395,1.557s-.3144,1.6733-1.2395,1.6733C31.7528,30.4583,31.4667,29.6937,31.4667,28.785Zm-1.0163,0c0,1.4355.6551,2.544,2.2587,2.544A2.2816,2.2816,0,0,0,34.97,28.785a2.2653,2.2653,0,1,0-4.52,0Z"/><path class="cls-2" d="M43.0689,27.3033h.8452c.5024,0,.8168.196.8168.6719a.6585.6585,0,0,1-.7121.67h-.95Zm-1.018,3.4595a.51.51,0,1,0,1.018,0V29.4774h1.13a1.4357,1.4357,0,0,0,1.5537-1.5022,1.3971,1.3971,0,0,0-1.5491-1.5005H42.6482c-.3627,0-.5973.15-.5973.6305Z"/><path class="cls-3" d="M43.0689,27.3033h.8452c.5024,0,.8168.196.8168.6719a.6585.6585,0,0,1-.7121.67h-.95Zm-1.018,3.4595a.51.51,0,1,0,1.018,0V29.4774h1.13a1.4357,1.4357,0,0,0,1.5537-1.5022,1.3971,1.3971,0,0,0-1.5491-1.5005H42.6482c-.3627,0-.5973.15-.5973.6305Z"/><path class="cls-2" d="M52.7252,27.5691c0-.4786.2361-.6319.5936-.6319h2.3886c.2976,0,.5142.0927.5142.4379,0,.3387-.2166.4317-.5142.4317H53.7413v1.0281h1.7233c.27,0,.4793.0783.4793.4146s-.21.4174-.4793.4174H53.7413v1.1444h2.0161c.3011,0,.5173.0917.5173.4358s-.2162.4359-.5173.4359H53.3188c-.3575,0-.5936-.1516-.5936-.636Z"/><path class="cls-3" d="M52.7252,27.5691c0-.4786.2361-.6319.5936-.6319h2.3886c.2976,0,.5142.0927.5142.4379,0,.3387-.2166.4317-.5142.4317H53.7413v1.0281h1.7233c.27,0,.4793.0783.4793.4146s-.21.4174-.4793.4174H53.7413v1.1444h2.0161c.3011,0,.5173.0917.5173.4358s-.2162.4359-.5173.4359H53.3188c-.3575,0-.5936-.1516-.5936-.636Z"/><path class="cls-2" d="M64.5881,27.7658h1.0482c.4475,0,.7386.1348.7386.64,0,.5337-.3842.6387-.767.6387h-1.02ZM63.569,31.2253a.5106.5106,0,1,0,1.0191,0v-1.389H65.59c.5587,0,.702.3363.702,1.1642,0,.1916.0448.767.6035.767a.458.458,0,0,0,.4759-.4208,7.0629,7.0629,0,0,1-.1314-.9781c0-.479-.0982-.8813-.6155-.96v-.0164a1.1229,1.1229,0,0,0,.7684-1.1379c0-.6107-.3226-1.3158-1.5354-1.3158H64.1643c-.36,0-.5953.1516-.5953.6322Z"/><path class="cls-3" d="M64.5881,27.7658h1.0482c.4475,0,.7386.1348.7386.64,0,.5337-.3842.6387-.767.6387h-1.02ZM63.569,31.2253a.5106.5106,0,1,0,1.0191,0v-1.389H65.59c.5587,0,.702.3363.702,1.1642,0,.1916.0448.767.6035.767a.458.458,0,0,0,.4759-.4208,7.0629,7.0629,0,0,1-.1314-.9781c0-.479-.0982-.8813-.6155-.96v-.0164a1.1229,1.1229,0,0,0,.7684-1.1379c0-.6107-.3226-1.3158-1.5354-1.3158H64.1643c-.36,0-.5953.1516-.5953.6322Z"/><path class="cls-2" d="M75.7685,27.3816h-.96a.465.465,0,0,1-.5258-.4547c0-.2976.233-.4523.5258-.4523h2.9391c.2928,0,.5255.1546.5255.4523a.4648.4648,0,0,1-.5255.4547h-.9613v3.3811a.51.51,0,1,1-1.0178,0Z"/><path class="cls-3" d="M75.7685,27.3816h-.96a.465.465,0,0,1-.5258-.4547c0-.2976.233-.4523.5258-.4523h2.9391c.2928,0,.5255.1546.5255.4523a.4648.4648,0,0,1-.5255.4547h-.9613v3.3811a.51.51,0,1,1-1.0178,0Z"/><path class="cls-2" d="M85.722,26.9269a.5113.5113,0,1,1,1.0212,0v3.8358a.5115.5115,0,1,1-1.0212,0Z"/><path class="cls-3" d="M85.722,26.9269a.5113.5113,0,1,1,1.0212,0v3.8358a.5115.5115,0,1,1-1.0212,0Z"/><path class="cls-2" d="M94.18,27.1052c0-.4824.2378-.6305.5953-.6305h2.39c.2963,0,.5156.09.5156.4324s-.2193.4328-.5156.4328H95.2017V28.371h1.7232c.2665,0,.479.0783.479.4139s-.2124.416-.479.416H95.2017v1.1464h2.0144c.2963,0,.5142.093.5142.4338,0,.3442-.2179.4362-.5142.4362h-2.44c-.3575,0-.5953-.1516-.5953-.634Z"/><path class="cls-3" d="M94.18,27.1052c0-.4824.2378-.6305.5953-.6305h2.39c.2963,0,.5156.09.5156.4324s-.2193.4328-.5156.4328H95.2017V28.371h1.7232c.2665,0,.479.0783.479.4139s-.2124.416-.479.416H95.2017v1.1464h2.0144c.2963,0,.5142.093.5142.4338,0,.3442-.2179.4362-.5142.4362h-2.44c-.3575,0-.5953-.1516-.5953-.634Z"/><path class="cls-2" d="M107.23,28.47a1.3185,1.3185,0,0,1,1.1676,1.3623c0,.8563-.6073,1.4971-1.8379,1.4971-1.2857,0-1.8645-.6873-1.8645-1.1994a.4194.4194,0,0,1,.4256-.4492c.5539,0,.4126.8584,1.4389.8584.5255,0,.8218-.3117.8218-.6292,0-.1882-.09-.3976-.4345-.4923l-1.1474-.3093a1.2354,1.2354,0,0,1-1.0945-1.299c0-1.0534.9179-1.4475,1.7831-1.4475.7916,0,1.7315.4745,1.7315,1.1067a.4321.4321,0,0,1-.4656.427c-.4742,0-.3859-.7048-1.3377-.7048-.47,0-.73.2313-.73.56s.3712.4379.6938.5142Z"/><path class="cls-3" d="M107.23,28.47a1.3185,1.3185,0,0,1,1.1676,1.3623c0,.8563-.6073,1.4971-1.8379,1.4971-1.2857,0-1.8645-.6873-1.8645-1.1994a.4194.4194,0,0,1,.4256-.4492c.5539,0,.4126.8584,1.4389.8584.5255,0,.8218-.3117.8218-.6292,0-.1882-.09-.3976-.4345-.4923l-1.1474-.3093a1.2354,1.2354,0,0,1-1.0945-1.299c0-1.0534.9179-1.4475,1.7831-1.4475.7916,0,1.7315.4745,1.7315,1.1067a.4321.4321,0,0,1-.4656.427c-.4742,0-.3859-.7048-1.3377-.7048-.47,0-.73.2313-.73.56s.3712.4379.6938.5142Z"/><rect class="cls-2" x="8.8926" y="23.1941" width="99.4604" height="0.2422"/><path class="cls-2" d="M14.5565,17.5423l-3.58-7.4858h-.03l-.3793,6.3178c-.0431.7171.4908.8734,1.1244.9v.2679H8.7712v-.2679c1.0246,0,1.1511-.2248,1.221-1.5022l.3392-5.4626c.0532-.9261.0267-1.1793-.8433-1.2374V8.8211h2.1192l3.3834,7.0773,3.3716-7.0773H20.425v.2511c-.687.0582-.955.07-.9249.5488l.449,6.3627c.0816,1.2908.1964,1.2908,1.221,1.2908v.2679H17.5622v-.2679c.6589,0,1.3041-.183,1.2492-.9268l-.4094-6.2912h-.0265l-3.4947,7.4858Z"/><path class="cls-2" d="M30.4254,14.3819h-.2661c-.1133-.9966-.3794-1.1078-.9566-1.1078H26.8306v2.9891c0,.6466.24.7735.7586.7735h2.1624c.9832,0,1.2776-.3811,1.6285-1.5871h.2528l-.2244,2.0927H23.9512v-.2679h.3944c1.1211,0,1.3192-.3076,1.3192-1.1512V10.1968c0-.7869-.1815-1.1245-1.123-1.1245h-.3094V8.8078h6.7419l.1114,1.9514h-.2528c-.1846-1.1947-.534-1.4475-1.04-1.4475H26.8306v3.4564h2.5135c.5057,0,.7453-.2395.8151-1.0544h.2661Z"/><path class="cls-2" d="M37.35,16.2214c0,.8433.3392,1.0548,1.1244,1.0548h.3226v.2644H34.8216v-.2644h.2412c.8267,0,1.1213-.2279,1.1213-1.1676v-5.91c0-.8714-.2379-1.1259-1.05-1.1259h-.3128V8.8061c.3378,0,1.1945-.0547,1.7716-.0852.5739-.0267.8549-.04,1.7682-.04,2.5982,0,3.7628,1.0664,3.7628,2.4985A2.3958,2.3958,0,0,1,40.26,13.4551a17.25,17.25,0,0,1,1.5985,1.4588l1.1093,1.1095a4.2208,4.2208,0,0,0,2.7662,1.4208v.2511c-2.4567.1115-3.0854-.4191-4.338-1.6719l-.9266-.9261A10.2838,10.2838,0,0,0,39.02,13.8478c-.3493.0151-.5739.0281-.9531.0281-.3079,0-.4923-.013-.7169-.0281Zm0-2.64a6.1994,6.1994,0,0,0,.87.028c1.56,0,2.5867-.66,2.5867-2.3448,0-1.3059-.5907-2.3172-2.753-2.3172a5.8488,5.8488,0,0,0-.7036.0277Z"/><path class="cls-2" d="M51.0266,17.5423H47.6135v-.2679c.87-.0431,1.0527-.2662,1.0527-1.2077V10.0852c0-.7585-.2658-.97-1.0527-1.013V8.8078h3.4131v.2645c-.8849,0-1.1959.1964-1.1959,1.1379V16.165c0,.8282.2263,1.1095,1.1959,1.1095Z"/><path class="cls-2" d="M62.8088,17.6388l-7.2727-7.61v6.0246c0,1.0113.2248,1.221,1.4174,1.221v.2679H53.6948v-.2679h.0564c.87,0,1.1512-.2946,1.1512-.94v-6.91a2.069,2.069,0,0,0-1.1813-.3524V8.8061h2.206l6.6172,6.8947V10.1119c0-.8567-.2545-1.01-1.3777-1.04V8.8061H64.452v.2662c-1.0513,0-1.2775.183-1.2775.7318v7.8348Z"/><path class="cls-2" d="M75.3073,16.8821a9.5069,9.5069,0,0,1-3.7639.8864,4.3349,4.3349,0,0,1-4.5081-4.4263,4.68,4.68,0,0,1,4.9022-4.7476,11.9441,11.9441,0,0,1,2.7944.4776.4922.4922,0,0,0,.3226-.0968h.195v2.2761h-.28A2.6782,2.6782,0,0,0,72.09,8.9477c-2.47,0-3.7359,2.0493-3.7359,4.3114a3.8014,3.8014,0,0,0,3.6394,4.1567,4.7451,4.7451,0,0,0,2.1478-.5337v-1.77c0-.8-.2812-1.066-1.1231-1.066h-.5224v-.2528h3.7958v.2528c-.7051.0414-.9846.2795-.9846.883Z"/><path class="cls-2" d="M84.4045,17.7668c-2.75,0-5.0685-1.77-5.0685-4.3962,0-2.7951,2.1492-4.7759,5.14-4.7759,2.6528,0,4.93,1.8132,4.93,4.34a4.837,4.837,0,0,1-5.0021,4.832m-.2929-8.8191c-2.4714,0-3.4564,2.3018-3.4564,3.987a4.17,4.17,0,0,0,4.0438,4.48c2.29,0,3.3866-2.02,3.3866-4.0158,0-2.6117-1.6548-4.4509-3.974-4.4509"/><path class="cls-2" d="M98.72,14.1855H98.48c-.0263-.8149-.3226-1.066-.9976-1.066H94.8877v3.0739c0,.7866.1676,1.0811,1.2207,1.0811v.2679H92.6964v-.2679c.87-.0548,1.025-.2378,1.025-1.376V10.3928c0-.8984-.0715-1.3058-1.0548-1.3206V8.8061h6.2912v1.6565H98.72c-.0147-.8132-.2925-1.1509-1.166-1.1509H94.8877v3.3H97.667c.519,0,.7718-.2956.8132-.8981H98.72Z"/><path class="cls-2" d="M108.2346,14.1855h-.2381c-.0263-.8149-.324-1.066-.9979-1.066H104.4v3.0739c0,.7866.17,1.0811,1.221,1.0811v.2679h-3.41v-.2679c.8717-.0548,1.0246-.2378,1.0246-1.376V10.3928c0-.8984-.07-1.3058-1.053-1.3206V8.8061h6.2912v1.6565h-.2395c-.0133-.8132-.2946-1.1509-1.1642-1.1509H104.4v3.3h2.7814c.519,0,.7735-.2956.8149-.8981h.2381Z"/></g></g></svg>