<svg xmlns="http://www.w3.org/2000/svg" viewBox="0 0 49.846 14.0067"><title>REBNY logo</title><g id="Layer_2" data-name="Layer 2"><g id="artwork"><path d="M49.846,2.9221a1.3631,1.3631,0,1,1-1.3587-1.3264A1.3325,1.3325,0,0,1,49.846,2.9221Zm-2.3861,0a1.0279,1.0279,0,0,0,1.0353,1.06,1.0151,1.0151,0,0,0,1.0109-1.0511A1.0239,1.0239,0,1,0,47.46,2.9221Zm.8173.6961H47.97V2.2918a2.6712,2.6712,0,0,1,.51-.0408.8329.8329,0,0,1,.461.0968A.37.37,0,0,1,49.07,2.64a.339.339,0,0,1-.2746.3069V2.963a.3916.3916,0,0,1,.2424.3234,1.01,1.01,0,0,0,.0975.3319h-.3319a1.1582,1.1582,0,0,1-.1054-.324c-.0237-.1455-.1047-.21-.2746-.21h-.1455Zm.0079-.7528h.1455c.17,0,.3076-.056.3076-.1936,0-.1212-.0889-.2022-.2832-.2022a.7518.7518,0,0,0-.17.0158Z"/><g id="gvFokR"><path d="M9.5922,11.3548V11.12l.16-.0488c-.015-.0311-.02-.06-.0371-.0742-.5354-.4481-1.0918-.8735-1.6025-1.3482A14.4547,14.4547,0,0,1,6.84,8.2969c-.4019-.484-.7554-1.0085-1.1243-1.52a1.6669,1.6669,0,0,0-1.4025-.7412c-.2463-.0032-.492-.0478-.7761-.0776,0,.311,0,.6117,0,.9124.0007.7663-.0172,1.5332.01,2.2985A2.149,2.149,0,0,0,3.78,10.28a1.4148,1.4148,0,0,0,.9144.5706c.3676.102.75.1521,1.1391.2276v.2677H0v-.2233c.4452-.1329.88-.2365,1.294-.3935a1.1016,1.1016,0,0,0,.6736-.9177,13.4679,13.4679,0,0,0,.081-2.3229c.0079-1.71.0141-3.42-.0066-5.13A4.9472,4.9472,0,0,0,1.8475,1.21.938.938,0,0,0,1.12.5715C.7968.48.461.4343.1149.3652V.1361C.5968.1249,1.075.12,1.5527.1014c.8716-.0334,1.7435-.1133,2.6141-.1A8.564,8.564,0,0,1,6.16.1534a6.1234,6.1234,0,0,1,1.052.3331A2.4,2.4,0,0,1,8.6677,2.2477,2.9483,2.9483,0,0,1,8.615,3.3354,2.2653,2.2653,0,0,1,7.9737,4.561a3.3863,3.3863,0,0,1-1.1.768,1.92,1.92,0,0,0-.2012.1195c.3169.4741.6152.9431.9368,1.3955C7.9862,7.3746,8.3723,7.9,8.7763,8.41a6.321,6.321,0,0,0,.8.8646c.4716.4081.9783.7758,1.4706,1.16a.3165.3165,0,0,0,.0654.0271,1.8907,1.8907,0,0,0,.2274-.9922c.0138-1.88.0331-3.76.0321-5.6393a5.0952,5.0952,0,0,0-.1309-1.1618A1.0066,1.0066,0,0,0,10.49,1.96c-.2588-.0782-.5327-.1053-.7934-.1786-.0613-.0172-.0961-.1285-.1719-.2381H17.331c-.0322.5181-.0628,1.0263-.0959,1.5344-.0106.1624-.0293.3243-.0412.4866-.0074.1-.0029.2-.1446.2123-.1592.0136-.1323-.12-.1551-.2-.0648-.2275-.0911-.4683-.1758-.6872a1.4471,1.4471,0,0,0-1.185-.891,7.068,7.068,0,0,0-.9955-.0842c-.5516-.023-1.1038-.0312-1.6557-.0452-.059-.0015-.118,0-.1971,0V5.9745c.1969,0,.3931.0034.589-.0006.5468-.0112,1.0961.0031,1.64-.0457a1.23,1.23,0,0,0,1.2266-1.0213c.02-.0747.037-.15.0565-.23h.23V7.8976h-.2091c-.07-.2037-.1263-.4082-.2092-.6013a1.0661,1.0661,0,0,0-.8439-.6219,12.9551,12.9551,0,0,0-2.1628-.0816c-.1037-.0029-.2075,0-.3356,0,0,.4908-.0006.9576,0,1.4244.0008.5152-.0093,1.0308.0075,1.5455a1.223,1.223,0,0,0,.9638,1.2541,3.66,3.66,0,0,0,1.2792.15,3.6242,3.6242,0,0,0,1.5149-.2968A2.3143,2.3143,0,0,0,17.6,9.3413c.1058-.2764.184-.5634.2783-.8572h.2107A9.4341,9.4341,0,0,1,17.592,11.35H12.7795l-.01.0388c.3441.1542.6858.3141,1.0328.4616A14.668,14.668,0,0,0,16.19,12.61c.4985.1173,1.0022.2139,1.5061.3062.4786.0877.96.1641,1.4412.2332a8.6615,8.6615,0,0,0,.8936.0889c.8606.0332,1.7219.0783,2.5825.07a14.7528,14.7528,0,0,0,2.1751-.2163,9.6511,9.6511,0,0,0,2.4858-.7478c.601-.2728,1.1737-.608,1.759-.9155l-.0205-.0636h-2.27l-.0111-.2343c.2582-.0747.5157-.1328.7609-.2237a1.3552,1.3552,0,0,0,.8662-.9612,4.8048,4.8048,0,0,0,.1929-1.1315c.0318-1.7411.0386-3.4827.042-5.2242a1.4662,1.4662,0,0,0-.3281-1.0148,2.8249,2.8249,0,0,0-.8045-.5362,4.2,4.2,0,0,0-.705-.2138c-.1287-.0383-.24-.0913-.143-.2961.2783,0,.5791-.0006.88,0,.4426.001.8852-.0017,1.3276.0087a.3717.3717,0,0,1,.2374.094c.4437.4567.8773.9232,1.3164,1.3844.3264.3429.6582.6807.9844,1.0239q.6915.7274,1.3778,1.46c.321.3433.6362.692.9671,1.0525l.2116-.2849.0231.0152-.1936.3,2.27,2.4036.058-.0215c-.0164-.2449-.0394-.49-.0475-.7347-.009-.2709-.0054-.5422-.0057-.8133-.0006-.5754.0048-1.1509-.0015-1.7262-.0077-.7043-.0092-1.4093-.0434-2.1126a1.67,1.67,0,0,0-.4472-1.2266,2.3771,2.3771,0,0,0-1.05-.4813,3.0192,3.0192,0,0,0-.3623-.0779c-.1457-.0216-.1929-.0919-.13-.2463h6.9188c.04.1517.0386.227-.1665.2549-.282.0383-.5983.1-.6849.4457a.6686.6686,0,0,0,.03.3915q.39.9453.81,1.8779c.2883.64.5919,1.2733.9059,1.946.1065-.2018.2031-.3854.3-.5688.3348-.6321.684-1.257.9992-1.8987a8.6045,8.6045,0,0,0,.4659-1.1741.69.69,0,0,0-.4929-.95,1.5234,1.5234,0,0,0-.3017-.0773c-.2117-.0293-.2123-.0246-.17-.2513h3.6733c.0346.1532.0183.2328-.1674.256a2.4217,2.4217,0,0,0-1.2143.4826,2.796,2.796,0,0,0-.6954.7443c-.506.8711-.9673,1.7682-1.4407,2.6581a9.6193,9.6193,0,0,0-.5453,1.1018,2.3721,2.3721,0,0,0-.0928.7691c-.0122.5346-.0172,1.07.0043,1.6043a4.0845,4.0845,0,0,0,.1338.8829,1.219,1.219,0,0,0,.9087.8523c.2783.0843.5611.1534.8412.2291.0621.19-.0107.2356-.2.2349-1.5525-.0058-3.1051-.0011-4.6576,0-.0716,0-.1432-.0078-.2222-.0123v-.2345c.2414-.0585.4866-.1135.7293-.1776a1.2959,1.2959,0,0,0,1.0837-1.19c.0594-.7535.0832-1.5122.07-2.2677a1.9647,1.9647,0,0,0-.2794-.6793c-.4095-.9-.81-1.804-1.2369-2.6957A14.0976,14.0976,0,0,0,38.51,2.6671a1.684,1.684,0,0,0-.9348-.7293.3481.3481,0,0,0-.3383.0668,1.5076,1.5076,0,0,0-.5605,1.103,14.7646,14.7646,0,0,0-.1545,2.428c-.0058.8031-.037,1.6061-.0372,2.4092,0,.7842.0213,1.5685.0405,2.3525.01.4269.0359.8534.0544,1.2755-.3059.1035-.3915-.1545-.5239-.288-.2662-.2686-.4976-.5715-.75-.8543q-.7394-.8288-1.4872-1.65c-.2873-.314-.5865-.6172-.9027-.9487a16.1632,16.1632,0,0,1-2.729,2.9639l.0188.0613.873.26v.2381c-.34,0-.6827.0233-1.02-.006a1.61,1.61,0,0,0-1.0534.3353,18.8278,18.8278,0,0,1-2.1617,1.166,11.3775,11.3775,0,0,1-2.6862.8379,14.46,14.46,0,0,1-1.7575.2384c-.8716.0569-1.7473.0925-2.62.0759a17.0019,17.0019,0,0,1-2.0479-.19c-.8419-.119-1.6807-.2673-2.5146-.4342a13.6863,13.6863,0,0,1-2.856-.9414c-.7-.3105-1.3673-.6945-2.0506-1.043a.3959.3959,0,0,0-.1649-.0375C9.9676,11.3519,9.79,11.3548,9.5922,11.3548ZM3.5571.3136V5.5711A4.4933,4.4933,0,0,0,5.47,5.1824a2.518,2.518,0,0,0,1.1829-1.01,2.37,2.37,0,0,0,.1527-2.0665A2.3649,2.3649,0,0,0,5.6961.83,3.8391,3.8391,0,0,0,4.4938.4073C4.1894.35,3.8756.3436,3.5571.3136ZM29.0781,3.7853a1.3873,1.3873,0,0,0-.02.1465c.0127,1.351.0163,2.7022.0443,4.0529.0112.5409.0665,1.0818.12,1.6208a1.5535,1.5535,0,0,0,.6236,1.048.1979.1979,0,0,0,.1892-.0029c.3187-.261.6408-.52.9373-.8051.35-.3365.6811-.6933,1.01-1.0509.2791-.3033.5442-.6194.8136-.9315.0687-.08.0426-.1414-.03-.2155-.2766-.281-.5431-.5721-.8157-.8572q-.8242-.8624-1.651-1.7223c-.1782-.1854-.3623-.3651-.5395-.5514C29.5407,4.2864,29.3261,4.0519,29.0781,3.7853Z"/><path d="M18.3323,11.3445v-.2336c.2249-.0458.4561-.08.68-.1411a1.1776,1.1776,0,0,0,.9347-.6866A1.688,1.688,0,0,0,20.06,9.792c.0252-.678.0412-1.3567.0443-2.0352.0062-1.362.0087-2.7242-.0035-4.0861A4.2469,4.2469,0,0,0,19.985,2.74a1.038,1.038,0,0,0-.8166-.7361c-.2168-.063-.4472-.0793-.6637-.1431-.0608-.0179-.0939-.13-.17-.2444.4623-.0162.853-.0312,1.2437-.0433.92-.0287,1.841-.0927,2.76-.0733a4.9351,4.9351,0,0,1,2.492.6048A1.8765,1.8765,0,0,1,25.764,3.453a2.0565,2.0565,0,0,1-.1018,1.1678,1.8839,1.8839,0,0,1-.914.946c-.4543.2279-.9332.407-1.3445.5831.4031.1387.88.2858,1.3437.4671a3.1684,3.1684,0,0,1,1.2268.8386,1.8116,1.8116,0,0,1,.4843,1.2815,2.3359,2.3359,0,0,1-.4067,1.3779,3.0487,3.0487,0,0,1-1.7052,1.045,10.0964,10.0964,0,0,1-2.7979.1952c-1.0361.0123-2.0725.0027-3.1088.0019A.999.999,0,0,1,18.3323,11.3445ZM21.396,8.1212h.0012c.0006.1189-.004.238.0014.3566a14.517,14.517,0,0,0,.0916,1.6244.9628.9628,0,0,0,.8724.8663,2.3333,2.3333,0,0,0,1.12-.0632,1.8323,1.8323,0,0,0,1.11-.8285,1.9646,1.9646,0,0,0,.2765-1.3422A2.5769,2.5769,0,0,0,23.21,6.6367a4.0494,4.0494,0,0,0-1.66-.2c-.1261.0011-.1545.0708-.1541.1789C21.397,7.1176,21.396,7.6194,21.396,8.1212Zm.0085-1.9648c.29-.0361.5532-.0766.8182-.1a3.1547,3.1547,0,0,0,1.2684-.4,1.5933,1.5933,0,0,0,.8031-1.0137,2.1822,2.1822,0,0,0-.12-1.46,1.8616,1.8616,0,0,0-.7852-.8665,3.58,3.58,0,0,0-1.9849-.4438Z"/></g></g></g></svg>