<svg xmlns="http://www.w3.org/2000/svg" viewBox="0 0 84.8959 24"><defs><style>.cls-1{fill:#249c84;}.cls-2{fill:#fff;}</style></defs><title>Asset 21</title><g id="Layer_2" data-name="Layer 2"><g id="artwork"><rect class="cls-1" width="84.8959" height="24"/><path class="cls-2" d="M11.7244,9.032c-.0723-.8877-.4316-1.5586-1.3311-1.5586A1.1085,1.1085,0,0,0,9.2058,8.6121c0,1.9551,3.4785,1.9795,3.4785,4.7617a2.0175,2.0175,0,0,1-2.2187,2.207A2.2035,2.2035,0,0,1,8.27,13.1335h.8633c.0244,1.02.5039,1.6553,1.4277,1.6553a1.2474,1.2474,0,0,0,1.2832-1.4268c0-1.9668-3.4785-2.1953-3.4785-4.666a1.9337,1.9337,0,0,1,2.0869-2.0146c1.248,0,2.0635.84,2.1348,2.3506Z"/><path class="cls-2" d="M17.4851,15.4607H16.67v-.6836a2.4674,2.4674,0,0,1-1.416.8037c-.8633,0-1.3672-.4795-1.3672-1.6309V9.2244H14.75V13.83c0,.72.2168,1.0313.6846,1.0313a1.6362,1.6362,0,0,0,1.1865-.7676V9.2244h.8643Z"/><path class="cls-2" d="M19.67,15.4607h-.6709a6.7992,6.7992,0,0,0,.1436-1.6787v-6.98h.8633V9.6794a1.7,1.7,0,0,1,1.1514-.5752c.9834,0,1.7988.84,1.7988,3.2383s-.8154,3.2383-1.7988,3.2383a1.5455,1.5455,0,0,1-1.2949-.72Zm.3359-1.1992a1.3545,1.3545,0,0,0,.9121.6c.7188,0,1.1748-.6,1.1748-2.5186s-.42-2.5186-1.1514-2.5186a1.4378,1.4378,0,0,0-.9355.5518Z"/><path class="cls-2" d="M24.3513,15.4607V9.2244h.791V9.908a2.0212,2.0212,0,0,1,1.4512-.8037,1.19,1.19,0,0,1,1.1152.792,2.0494,2.0494,0,0,1,1.4512-.792c.8154,0,1.26.5518,1.26,1.4395v4.917h-.8633V10.6638c0-.6484-.1924-.84-.6484-.84a1.51,1.51,0,0,0-1.0908.6475v4.9893h-.8633V10.6638c0-.6484-.2285-.84-.6846-.84a1.372,1.372,0,0,0-1.0547.6475v4.9893Z"/><path class="cls-2" d="M32.15,6.8015h.8633V7.8093H32.15Zm0,2.4229h.8633v6.2363H32.15Z"/><path class="cls-2" d="M33.867,9.2244h.84V7.1374H35.57V9.2244h1.1514v.72H35.57v4.3652a.5685.5685,0,0,0,.624.624,1.8814,1.8814,0,0,0,.5273-.12v.6475a2.5367,2.5367,0,0,1-.8154.12c-.8154,0-1.1992-.3838-1.1992-1.3437V9.9441h-.84Z"/><polygon class="cls-2" points="63.946 19.08 63.536 18.794 68.27 12 63.536 5.206 63.946 4.92 68.88 12 63.946 19.08"/></g></g></svg>