<svg xmlns="http://www.w3.org/2000/svg" viewBox="0 0 43.2399 11.3552"><defs><style>.cls-1{fill:#e31f29;}.cls-2{fill:#263571;}.cls-3{fill:#399bda;}</style></defs><title>Citi bike</title><g id="Layer_2" data-name="Layer 2"><g id="artwork"><g id="g10"><g id="g12"><path id="path14" class="cls-1" d="M17.8305,2.9916a7.03,7.03,0,0,0-11.5088,0l-.0675.0961H7.92l.0178-.0194a5.68,5.68,0,0,1,8.2764,0l.0184.0194h1.6651l-.067-.0961h0"/><path id="path16" class="cls-2" d="M5.4027,9.141l-.0311.0314A2.4119,2.4119,0,0,1,3.6572,9.97,2.1627,2.1627,0,0,1,1.4593,7.6961,2.1629,2.1629,0,0,1,3.6572,5.4244a2.4086,2.4086,0,0,1,1.7143.799l.0311.0329.8192-.9915L6.1995,5.238A3.1225,3.1225,0,0,0,3.6964,4.0417a3.7974,3.7974,0,0,0-2.5934.9518A3.55,3.55,0,0,0,0,7.6961,3.559,3.559,0,0,0,1.103,10.402a3.7871,3.7871,0,0,0,2.5934.9519,3.1238,3.1238,0,0,0,2.5031-1.1954l.0225-.0256L5.4027,9.141"/><path id="path18" class="cls-2" d="M7.05,11.2193H8.4963V4.1563H7.05Z"/><path id="path20" class="cls-2" d="M14.1636,9.683a2.0945,2.0945,0,0,1-1.0678.3539c-.4671,0-.6789-.2459-.6789-.7964V5.4934h1.4739V4.1627H12.4169V1.9645l-1.4183.7591V4.1627H9.7761V5.4934h1.2225V9.48a1.6661,1.6661,0,0,0,1.6042,1.848,2.281,2.281,0,0,0,1.2844-.3246l.0142-.01.348-1.3623-.0858.0521"/><path id="path22" class="cls-2" d="M15.3625,11.2193h1.4483V4.1563H15.3625Z"/><path id="path24" class="cls-3" d="M29.2048,11.2193a.1981.1981,0,0,0,.19-.205V4.3469a.1866.1866,0,0,0-.19-.1906H27.7087a.1988.1988,0,0,0-.2047.1906v6.6675a.21.21,0,0,0,.2047.205ZM28.4575.9133a1.2312,1.2312,0,1,1-1.2323,1.2314A1.2321,1.2321,0,0,1,28.4575.9133"/><path id="path26" class="cls-3" d="M32.3247,11.0285a.1864.1864,0,0,1-.19.1908H30.6387a.1985.1985,0,0,1-.2048-.1908V1.5826a.1982.1982,0,0,1,.2048-.1906h1.4961a.1862.1862,0,0,1,.19.1906v9.4459"/><path id="path28" class="cls-3" d="M34.5727,11.2193c-.1873,0-.2812-.0058-.3637-.1346L32.1643,7.7676,34.2749,4.32a.3851.3851,0,0,1,.3786-.1633H36.05c.1405,0,.1628.0781.1628.1211a.48.48,0,0,1-.1024.233L34.0424,7.5931l2.2251,3.305c.0731.1067.1.1555.1.2006,0,.0418-.0093.1206-.1636.1206H34.5727"/><path id="path30" class="cls-3" d="M35.9671,7.7464A3.4842,3.4842,0,0,1,39.3637,4.04a3.2864,3.2864,0,0,1,3.2127,3.4422V7.83c0,.24-.1182.274-.2459.274H37.812a1.6288,1.6288,0,0,0,1.6166,1.6195,1.8842,1.8842,0,0,0,1.4737-.8015c.0792-.0927.1643-.2108.2709-.2108a.3194.3194,0,0,1,.1675.05l.9689.6165c.0944.0546.1518.1169.1518.19a.4192.4192,0,0,1-.0575.1671,3.3005,3.3005,0,0,1-3.0026,1.62,3.386,3.386,0,0,1-3.4343-3.6088m1.855-.8516H40.975a1.589,1.589,0,0,0-3.1529,0"/><path id="path32" class="cls-3" d="M23.1289,9.6746a1.8464,1.8464,0,0,1-1.7005-1.96,1.8457,1.8457,0,0,1,1.7005-1.96,1.8455,1.8455,0,0,1,1.7,1.96A1.8462,1.8462,0,0,1,23.1289,9.6746ZM23.2965,4.04a2.544,2.544,0,0,0-1.8234.64V1.5826a.1932.1932,0,0,0-.1907-.1906H19.8007a.1861.1861,0,0,0-.1906.1906v9.4459a.1863.1863,0,0,0,.1906.1908h1.4806a.1863.1863,0,0,0,.1907-.1908l.0011-.2684a2.5869,2.5869,0,0,0,1.809.5951A3.4631,3.4631,0,0,0,26.7289,7.677,3.4242,3.4242,0,0,0,23.2965,4.04"/><path id="path34" class="cls-3" d="M42.85,10.906h.0362c.0427,0,.0771-.0137.0771-.0483,0-.03-.022-.0507-.0706-.0507a.2129.2129,0,0,0-.0427.004Zm-.0019.1882h-.0769v-.3314a.6526.6526,0,0,1,.1274-.01.2087.2087,0,0,1,.1151.0242.0919.0919,0,0,1,.0324.0727.085.085,0,0,1-.0688.0769v.004a.0978.0978,0,0,1,.0606.0806.2454.2454,0,0,0,.0245.0832h-.0829a.2922.2922,0,0,1-.0264-.0811c-.0058-.0363-.0262-.0525-.0685-.0525h-.0364Zm-.2042-.1741a.2567.2567,0,0,0,.2587.2647.2535.2535,0,0,0,.2525-.2626.2558.2558,0,1,0-.5112-.0021Zm.5961,0a.3407.3407,0,1,1-.34-.3314.3328.3328,0,0,1,.34.3314"/></g></g></g></g></svg>