<svg xmlns="http://www.w3.org/2000/svg" viewBox="0 0 84.6093 14.276"><defs><style>.cls-1{fill:#dda34b;}.cls-2{fill:#272525;}.cls-3{fill:#51874e;}.cls-4{fill:#fff;}.cls-5{fill:#c85c31;}</style></defs><title>Asset 20</title><g id="Layer_2" data-name="Layer 2"><g id="artwork"><circle class="cls-1" cx="24.7213" cy="7.138" r="7.138"/><path class="cls-2" d="M23.8463,11.37H22.5817V4.01h1.7734c1.417,0,2.1406.6016,2.1406,2.1709,0,1.1826-.458,1.6621-.8867,1.8555l1.07,3.333H25.3951l-.8965-3.0479a6.07,6.07,0,0,1-.6523.0313Zm0-4.0566h.4482c.6826,0,.9375-.2549.9375-1.1318S24.9772,5.05,24.2946,5.05h-.4482Z"/><circle class="cls-1" cx="42.3046" cy="7.138" r="7.138"/><path class="cls-2" d="M41.506,4.01h1.04l.8564,4.6885h.0205L44.1261,4.01h1.1816L44.0138,11.37H42.9532l-.917-4.8623h-.0205L41.1593,11.37H40.1L38.7032,4.01h1.1826L40.66,8.6988h.0205Z"/><circle class="cls-3" cx="7.138" cy="7.138" r="7.138"/><path class="cls-4" d="M7.4752,5.9878v-.377c0-.4795-.1631-.7031-.54-.7031s-.5908.2236-.5908.7031V7.3335a1.2475,1.2475,0,0,1,1.0391-.4893c.7344,0,1.3457.4277,1.3457,1.5078v.877c0,1.55-.53,2.2422-1.7939,2.2422s-1.7939-.6318-1.7939-2.0176V5.9263c0-1.3857.53-2.0176,1.7939-2.0176A1.5492,1.5492,0,0,1,8.5768,5.54v.4482ZM6.3444,9.7691c0,.4795.2139.7041.5908.7041s.5908-.2246.5908-.7041V8.5464c0-.4795-.2139-.7031-.5293-.7031a1.2938,1.2938,0,0,0-.6523.3359Z"/><circle class="cls-5" cx="59.888" cy="7.138" r="7.138"/><path class="cls-4" d="M58.0333,11.3687V4.0093h3.5273V5.1109H59.298V7.0074h1.6914v1.1H59.298v3.2617Z"/><circle class="cls-5" cx="77.4713" cy="7.138" r="7.138"/><path class="cls-4" d="M79.8317,4.0093v7.3594H78.73V5.6207h-.02l-1.1416,5.748h-.6123l-1.1416-5.748h-.0205v5.748H74.694V4.0093h1.6611l.8975,4.3027h.0205L78.17,4.0093Z"/></g></g></svg>