<svg xmlns="http://www.w3.org/2000/svg" viewBox="0 0 7.0874 10.7928"><defs><style>.cls-1{fill:#249c84;}</style></defs><title>transport-g</title><g id="Layer_2" data-name="Layer 2"><g id="artwork"><path class="cls-1" d="M7.0874,7.0929V1.6241A1.6241,1.6241,0,0,0,5.4633,0H1.6241A1.6241,1.6241,0,0,0,0,1.6241V7.0929A1.6245,1.6245,0,0,0,1.1616,8.65L.221,10.7928h.933L1.6415,9.682H5.4459l.4875,1.1108h.933L5.9258,8.65A1.6245,1.6245,0,0,0,7.0874,7.0929ZM2.4513.6608A.3177.3177,0,0,1,2.769.3431H4.3184a.3177.3177,0,0,1,.3177.3177v.38a.3177.3177,0,0,1-.3177.3177H2.769a.3177.3177,0,0,1-.3177-.3177ZM1.9443,7.5054a.5069.5069,0,1,1,.5069-.5069A.5069.5069,0,0,1,1.9443,7.5054Zm3.1987,0A.5069.5069,0,1,1,5.65,6.9985.5069.5069,0,0,1,5.143,7.5054Zm.8845-3.1469H1.06V1.7236H6.0275Z"/></g></g></svg>