<svg xmlns="http://www.w3.org/2000/svg" viewBox="0 0 124.7051 29.3317"><defs><style>.cls-1{fill:#ff3531;}.cls-2{fill:#fff;}.cls-3{fill:#bb45b6;}.cls-4{fill:#5baa33;}.cls-5{fill:#008a30;}</style></defs><title>Asset 21</title><g id="Layer_2" data-name="Layer 2"><g id="artwork"><rect class="cls-1" width="28.0384" height="10.9585"/><path class="cls-2" d="M13.0714,1.6007V8.96H11.97V3.2121h-.02L10.8087,8.96h-.6123L9.0548,3.2121H9.0343V8.96H7.9337V1.6007H9.5948l.8975,4.3027h.0205l.8965-4.3027Z"/><path class="cls-2" d="M18.5031,3.13h-.998V2.4464a7.6445,7.6445,0,0,0,1.498-.9473h.6416V8.96H18.5031Z"/><rect class="cls-3" x="32" width="28.0384" height="10.9585"/><path class="cls-2" d="M45.0714,1.6007V8.96H43.97V3.2121h-.02L42.8087,8.96h-.6123l-1.1416-5.748h-.0205V8.96H39.9337V1.6007h1.6611l.8975,4.3027h.0205l.8965-4.3027Z"/><path class="cls-2" d="M49.1476,8.96V7.9718c1.57-2.293,2.4258-3.5566,2.4258-4.6367,0-.582-.2236-.8359-.57-.8359-.4082,0-.6113.3145-.6113.7637v.5H49.1886V3.4152a1.797,1.797,0,0,1,1.875-1.916A1.6429,1.6429,0,0,1,52.7765,3.13c0,1.1621-.3672,2.0176-2.3447,4.791h2.2324V8.96Z"/><rect class="cls-3" x="64.0625" width="28.0384" height="10.9585"/><path class="cls-2" d="M77.1339,1.6007V8.96H76.0323V3.2121h-.02L74.8712,8.96h-.6123l-1.1416-5.748h-.0205V8.96H71.9962V1.6007h1.6611l.8975,4.3027h.0205l.8965-4.3027Z"/><path class="cls-2" d="M82.3722,6.8312v.498c0,.459.1836.7344.5713.7344.3662,0,.6006-.2539.6006-.8672V6.6359c0-.7949-.3057-1.0391-1.08-1.0391v-.998c.7441,0,1.0293-.2461,1.0293-1.1211,0-.6934-.1318-.9785-.51-.9785-.3564,0-.57.1719-.57.7539v.3047H81.2716V3.2121a1.6026,1.6026,0,0,1,1.7227-1.7129,1.6969,1.6969,0,0,1,1.6406,1.8867c0,.8555-.1426,1.334-.7949,1.6914.7441.3867.9072.8262.9072,1.8242,0,1.4687-.5811,2.16-1.835,2.16-1.05,0-1.6816-.5293-1.6816-1.793V6.8312Z"/><rect class="cls-4" y="18.3732" width="28.0384" height="10.9585"/><path class="cls-2" d="M11.9406,19.9747v7.3594H10.839v-5.749h-.02l-1.1416,5.749H9.0656l-1.1416-5.749H7.9034v5.749H6.8029V19.9747H8.464l.8975,4.3018H9.382l.8965-4.3018Z"/><path class="cls-2" d="M14.55,25.2042v.5908a.5653.5653,0,0,0,.5605.6416c.3975,0,.6221-.2344.6221-.8965V23.8683c0-.4785-.2451-.6729-.53-.6729a.7088.7088,0,0,0-.6826.5605h-.9785c.04-1.1416.0908-2.0381.0908-3.7812H16.7l-.041,1.04H14.672l-.0713,1.59.0205.0205a1.0665,1.0665,0,0,1,.9678-.4287c.9688,0,1.3457.7041,1.3457,1.9375v1.0186c0,1.55-.4893,2.2832-1.7119,2.2832-1.02,0-1.8145-.4482-1.8145-1.6709v-.5605Z"/><path class="cls-2" d="M19.4825,25.2042v.5908a.5648.5648,0,0,0,.5605.6416c.3975,0,.6221-.2344.6221-.8965V23.8683c0-.4785-.2451-.6729-.53-.6729a.7088.7088,0,0,0-.6826.5605h-.9785c.04-1.1416.0918-2.0381.0918-3.7812h3.0674l-.041,1.04H19.6046l-.0713,1.59.0205.0205a1.0681,1.0681,0,0,1,.9688-.4287c.9678,0,1.3447.7041,1.3447,1.9375v1.0186c0,1.55-.4893,2.2832-1.7119,2.2832-1.02,0-1.8145-.4482-1.8145-1.6709v-.5605Z"/><rect class="cls-5" x="32" y="18.3732" width="28.0384" height="10.9585"/><path class="cls-2" d="M40.7032,23.4816l-1.3447-3.5068h1.2432l.7744,2.334h.0205l.7031-2.334h1.2441l-1.2744,3.5068,1.4268,3.8525H42.2531l-.8564-2.6807h-.0205l-.877,2.6807H39.256Z"/><path class="cls-2" d="M46.85,21.9523v-.377c0-.4795-.1631-.7031-.54-.7031s-.5908.2236-.5908.7031V23.298a1.2487,1.2487,0,0,1,1.0391-.4893c.7344,0,1.3457.4277,1.3457,1.5088v.876c0,1.55-.53,2.2422-1.7939,2.2422s-1.7939-.6318-1.7939-2.0176V21.8908c0-1.3857.53-2.0176,1.7939-2.0176a1.5487,1.5487,0,0,1,1.6416,1.6309v.4482Zm-1.1309,3.7813c0,.4795.2139.7031.5908.7031s.5918-.2236.5918-.7031V24.5109c0-.4795-.2148-.7031-.53-.7031a1.2938,1.2938,0,0,0-.6523.3359Z"/><path class="cls-2" d="M50.59,25.2042v.499c0,.459.1836.7334.5713.7334.3662,0,.6006-.2539.6006-.8662V25.01c0-.7949-.3057-1.0391-1.08-1.0391v-.999c.7441,0,1.0293-.2451,1.0293-1.1211,0-.6934-.1318-.9785-.51-.9785-.3564,0-.57.1729-.57.7539v.3057H49.4894v-.3467a1.6023,1.6023,0,0,1,1.7227-1.7119,1.696,1.696,0,0,1,1.6406,1.8857c0,.8555-.1426,1.335-.7949,1.6914.7441.3877.9072.8262.9072,1.8252,0,1.4678-.5811,2.16-1.835,2.16-1.05,0-1.6816-.5293-1.6816-1.7939v-.4375Z"/><rect class="cls-5" x="64.0625" y="18.3732" width="28.0384" height="10.9585"/><path class="cls-2" d="M72.7657,23.4816,71.421,19.9747h1.2432l.7744,2.334h.0205l.7031-2.334h1.2441L74.132,23.4816l1.4268,3.8525H74.3156l-.8564-2.6807h-.0205l-.877,2.6807H71.3185Z"/><path class="cls-2" d="M78.9122,21.9523v-.377c0-.4795-.1631-.7031-.54-.7031s-.5908.2236-.5908.7031V23.298a1.2487,1.2487,0,0,1,1.0391-.4893c.7344,0,1.3457.4277,1.3457,1.5088v.876c0,1.55-.53,2.2422-1.7939,2.2422s-1.7939-.6318-1.7939-2.0176V21.8908c0-1.3857.53-2.0176,1.7939-2.0176a1.5487,1.5487,0,0,1,1.6416,1.6309v.4482Zm-1.1309,3.7813c0,.4795.2139.7031.5908.7031s.5918-.2236.5918-.7031V24.5109c0-.4795-.2148-.7031-.53-.7031a1.2938,1.2938,0,0,0-.6523.3359Z"/><path class="cls-2" d="M83.4073,25.5607H81.2052v-.9375l2.1406-4.6484h1.2227v4.6484h.6729v.9375h-.6729v1.7734H83.4073Zm.02-.9375v-2.875h-.02l-1.2334,2.875Z"/><rect class="cls-5" x="96.6667" y="18.3732" width="28.0384" height="10.9585"/><path class="cls-2" d="M105.37,23.4816l-1.3447-3.5068h1.2432l.7744,2.334h.0205l.7031-2.334H108.01l-1.2744,3.5068,1.4268,3.8525H106.92l-.8564-2.6807h-.0205l-.877,2.6807h-1.2432Z"/><path class="cls-2" d="M111.5162,21.9523v-.377c0-.4795-.1631-.7031-.54-.7031s-.5908.2236-.5908.7031V23.298a1.2487,1.2487,0,0,1,1.0391-.4893c.7344,0,1.3457.4277,1.3457,1.5088v.876c0,1.55-.53,2.2422-1.7939,2.2422s-1.7939-.6318-1.7939-2.0176V21.8908c0-1.3857.53-2.0176,1.7939-2.0176a1.5487,1.5487,0,0,1,1.6416,1.6309v.4482Zm-1.1309,3.7813c0,.4795.2139.7031.5908.7031s.5918-.2236.5918-.7031V24.5109c0-.4795-.2148-.7031-.53-.7031a1.2938,1.2938,0,0,0-.6523.3359Z"/><path class="cls-2" d="M114.88,23.41a1.7937,1.7937,0,0,1-.6631-1.4678c0-1.4277.6523-2.0693,1.6924-2.0693s1.6924.6416,1.6924,2.0693a1.7909,1.7909,0,0,1-.6631,1.4678c.6221.3975.7646.9883.7646,1.8857,0,1.3857-.6113,2.14-1.7939,2.14s-1.7939-.7539-1.7939-2.14C114.1149,24.3986,114.2574,23.8078,114.88,23.41Zm1.6816,1.8037c0-.7646-.1631-1.2227-.6523-1.2227s-.6523.458-.6523,1.2227.1631,1.2227.6523,1.2227S116.5612,25.9787,116.5612,25.214Zm-.1016-3.333c0-.7139-.1631-1.0088-.5508-1.0088s-.55.2949-.55,1.0088.1621,1.0088.55,1.0088S116.46,22.5949,116.46,21.881Z"/></g></g></svg>